<svg width="48" height="48" viewBox="0 0 48 48" fill="none" xmlns="http://www.w3.org/2000/svg">
<g clip-path="url(#clip0_2797_2303)">
<path d="M11.8387 25.4526C13.8782 25.4526 15.5315 23.7993 15.5315 21.7598C15.5315 19.7202 13.8782 18.0669 11.8387 18.0669C9.79917 18.0669 8.14581 19.7202 8.14581 21.7598C8.14581 23.7993 9.79917 25.4526 11.8387 25.4526Z" fill="#FFE07D"/>
<path d="M21.7597 15.5317C23.7992 15.5317 25.4526 13.8784 25.4526 11.8389C25.4526 9.79935 23.7992 8.146 21.7597 8.146C19.7202 8.146 18.0668 9.79935 18.0668 11.8389C18.0668 13.8784 19.7202 15.5317 21.7597 15.5317Z" fill="#7EB2F9"/>
<path d="M34.5575 17.3599C36.597 17.3599 38.2504 15.7065 38.2504 13.667C38.2504 11.6275 36.597 9.97412 34.5575 9.97412C32.518 9.97412 30.8646 11.6275 30.8646 13.667C30.8646 15.7065 32.518 17.3599 34.5575 17.3599Z" fill="#E28086"/>
<path d="M13.6669 38.2505C15.7064 38.2505 17.3598 36.5971 17.3598 34.5576C17.3598 32.5181 15.7064 30.8647 13.6669 30.8647C11.6274 30.8647 9.97406 32.5181 9.97406 34.5576C9.97406 36.5971 11.6274 38.2505 13.6669 38.2505Z" fill="#95D6A4"/>
<path d="M20.3398 47.682C14.787 47.682 9.69216 45.6872 5.97664 41.9722C1.84331 37.8394 -0.159345 32.0775 0.337499 25.7482C0.832234 19.4494 3.74638 13.3392 8.54252 8.54253C13.3387 3.74586 19.4494 0.832242 25.7482 0.337507C32.077 -0.15881 37.8394 1.84279 41.9727 5.97665C46.5234 10.5283 48.4933 17.1517 47.3758 24.1486C47.1035 25.853 46.1435 27.2872 44.6719 28.186C43.1572 29.1117 41.3015 29.3193 39.5839 28.7577C36.2108 27.6565 32.7477 28.3409 30.5438 30.5443C28.3404 32.7477 27.6554 36.2114 28.7571 39.5844C29.3188 41.3036 29.1107 43.1577 28.1855 44.6725C27.2866 46.144 25.8525 47.104 24.148 47.3764C22.863 47.5808 21.589 47.682 20.3398 47.682ZM27.607 1.32698C21.2724 1.32698 14.5452 4.02985 9.28753 9.28753C-0.225731 18.8008 -1.37695 33.1292 6.72164 41.2272C11.0315 45.5365 17.324 47.3975 23.9826 46.3347C25.3778 46.1119 26.5516 45.3263 27.2866 44.1224C28.0506 42.8711 28.2218 41.3358 27.7566 39.9106C26.5306 36.1587 27.313 32.284 29.7993 29.7983C32.2856 27.3119 36.1597 26.53 39.9116 27.7556C41.3384 28.2218 42.8721 28.0501 44.1234 27.2856C45.3274 26.5506 46.1129 25.3767 46.3358 23.9816C47.399 17.3218 45.5376 11.0304 41.2283 6.7206C37.6049 3.09886 32.734 1.32698 27.607 1.32698Z" fill="black"/>
<path d="M11.8386 25.979C10.758 25.979 9.67793 25.5681 8.85495 24.7456C7.21005 23.1002 7.21005 20.4231 8.85495 18.7777C10.5004 17.1333 13.1769 17.1333 14.8223 18.7777C16.4678 20.4226 16.4678 23.1002 14.8223 24.7456C13.9999 25.5676 12.9193 25.979 11.8386 25.979ZM11.8386 18.597C11.0278 18.597 10.2169 18.9052 9.59996 19.5227C8.36601 20.7572 8.36601 22.7656 9.59996 24.0001C10.8344 25.2346 12.8429 25.234 14.0773 24.0001C15.3118 22.7656 15.3118 20.7572 14.0773 19.5227C13.4604 18.9057 12.6495 18.597 11.8386 18.597Z" fill="black"/>
<path d="M21.7613 16.0569C20.6807 16.0569 19.6006 15.6454 18.7776 14.8229C17.1327 13.178 17.1327 10.5005 18.7776 8.85555C20.4231 7.21117 23.0996 7.21065 24.7455 8.85555C26.3904 10.5005 26.3904 13.178 24.7455 14.8229C23.9226 15.6454 22.8419 16.0569 21.7613 16.0569ZM21.7613 8.67431C20.9505 8.67431 20.1396 8.98253 19.5226 9.60003C18.2887 10.8345 18.2887 12.8429 19.5226 14.0774C20.7571 15.3119 22.7655 15.3119 24 14.0774C25.2339 12.8429 25.2339 10.8345 24 9.60003C23.383 8.98305 22.5722 8.67431 21.7613 8.67431Z" fill="black"/>
<path d="M34.5559 17.8844C33.4753 17.8844 32.3952 17.4729 31.5722 16.6505C30.7751 15.8533 30.3362 14.7938 30.3362 13.6668C30.3362 12.5393 30.7751 11.4797 31.5722 10.6831C33.2187 9.03766 35.8958 9.03819 37.5401 10.6831C39.185 12.328 39.185 15.0051 37.5401 16.6505C36.7177 17.4729 35.6371 17.8844 34.5559 17.8844ZM34.5564 10.5024C33.7456 10.5024 32.9347 10.8111 32.3172 11.4281C31.7192 12.0261 31.3899 12.8206 31.3899 13.6668C31.3899 14.5124 31.7192 15.3075 32.3172 15.9055C33.5517 17.1394 35.5596 17.1405 36.7951 15.9055C38.0291 14.671 38.0291 12.6626 36.7951 11.4281C36.1776 10.8106 35.3668 10.5024 34.5564 10.5024Z" fill="black"/>
<path d="M13.6669 38.7743C12.5863 38.7743 11.5057 38.3634 10.6832 37.5404C9.0378 35.895 9.0378 33.2179 10.6832 31.5725C11.4799 30.7753 12.5394 30.3364 13.6669 30.3364C14.7939 30.3364 15.8535 30.7753 16.6506 31.5725C18.296 33.2179 18.296 35.895 16.6506 37.5404C15.8276 38.3628 14.747 38.7743 13.6669 38.7743ZM13.6669 31.3907C12.8213 31.3907 12.0262 31.72 11.4282 32.318C10.1938 33.5525 10.1938 35.5614 11.4282 36.7959C12.6627 38.0299 14.6706 38.0299 15.9056 36.7959C17.1401 35.5614 17.1401 33.5525 15.9056 32.318C15.3071 31.72 14.5126 31.3907 13.6669 31.3907Z" fill="black"/>
<path d="M21.3356 22.3159C24.462 22.3307 28.284 23.0009 31.9489 26.455C34.0175 28.4045 34.2082 31.1105 32.5427 32.8777C30.8773 34.6448 28.1649 34.6148 26.0964 32.6653C22.4309 29.2117 21.5353 25.4361 21.3356 22.3159Z" fill="#F2F2F2"/>
<path d="M32.5427 32.8777C31.8699 33.5916 31.0259 34.0068 30.1228 34.1258L42.8258 46.097C43.8579 47.0696 45.4833 47.0216 46.4559 45.9895C47.4285 44.9573 47.3806 43.3319 46.3484 42.3593L33.6455 30.3882C33.5796 31.2965 33.215 32.1638 32.5427 32.8777Z" fill="#CC996A"/>
<path d="M29.5885 34.703C28.2735 34.703 26.9025 34.1493 25.735 33.0486C21.6907 29.2377 20.9873 25.1176 20.8098 22.3494L20.7739 21.7861L21.3382 21.7888C24.1112 21.8019 28.2656 22.2598 32.3104 26.0712C34.5723 28.2029 34.831 31.2172 32.9263 33.2383C32.0048 34.2172 30.8214 34.703 29.5885 34.703ZM21.9051 22.8531C22.1364 25.4184 22.9526 28.9796 26.4573 32.2825C28.2745 33.9944 30.6729 34.0934 32.1597 32.5165C33.6455 30.9395 33.4052 28.5512 31.588 26.8383C28.0822 23.5354 24.4794 22.9321 21.9051 22.8531Z" fill="black"/>
<path d="M44.5845 47.3233C43.7926 47.3233 43.0428 47.0261 42.4649 46.4803L28.9553 33.7488L30.0543 33.604C30.8615 33.497 31.5896 33.1208 32.1597 32.5165C32.7293 31.9127 33.0612 31.1635 33.1202 30.351L33.2003 29.2451L46.7094 41.9765C47.3116 42.5429 47.6562 43.3106 47.6804 44.1367C47.7052 44.9628 47.4064 45.7489 46.839 46.3506C46.2726 46.9529 45.5049 47.2974 44.6788 47.3217C44.6472 47.3227 44.6156 47.3233 44.5845 47.3233ZM31.1845 34.4022L43.1867 45.7136C43.5834 46.0877 44.0897 46.2948 44.6472 46.2684C45.192 46.2526 45.6978 46.025 46.0718 45.6283C46.4459 45.2316 46.643 44.7131 46.6266 44.1678C46.6108 43.623 46.3832 43.1172 45.9865 42.7431L33.9838 31.4322C33.7799 32.0992 33.4232 32.7125 32.9258 33.2394C32.4289 33.7657 31.8378 34.1593 31.1845 34.4022Z" fill="black"/>
</g>
<defs>
<clipPath id="clip0_2797_2303">
<rect width="48" height="48" fill="white"/>
</clipPath>
</defs>
</svg>
