<svg width="48" height="48" viewBox="0 0 48 48" fill="none" xmlns="http://www.w3.org/2000/svg">
<path d="M23.9705 33.4251C27.8391 33.4251 30.9753 30.289 30.9753 26.4203C30.9753 22.5517 27.8391 19.4155 23.9705 19.4155C20.1019 19.4155 16.9657 22.5517 16.9657 26.4203C16.9657 30.289 20.1019 33.4251 23.9705 33.4251Z" fill="#D75523"/>
<path d="M33.2414 13.186C33.0459 13.0495 32.783 13.0606 32.6001 13.2144L20.2128 23.6228C20.208 23.6265 20.207 23.6328 20.2022 23.6365C20.1722 23.6634 20.1538 23.6987 20.1306 23.7319C20.1074 23.7651 20.0805 23.7941 20.0658 23.8309C20.0637 23.8362 20.0584 23.8399 20.0563 23.8452L14.512 39.046C14.4303 39.2705 14.5094 39.5213 14.7048 39.6583C14.796 39.722 14.9019 39.7536 15.0073 39.7536C15.1279 39.7536 15.2486 39.712 15.3466 39.6304L27.7339 29.2214C27.7387 29.2177 27.7397 29.2114 27.7445 29.2077C27.7745 29.1808 27.7924 29.1455 27.8156 29.1123C27.8388 29.0792 27.8656 29.0502 27.8804 29.0133C27.8825 29.008 27.8878 29.0043 27.8899 28.9985L33.4342 13.7982C33.5159 13.5737 33.4368 13.323 33.2414 13.186ZM16.178 37.555L20.8113 24.8515L26.53 28.8563L16.178 37.555ZM27.1349 27.9927L24.2755 25.9906L21.4162 23.9885L31.7693 15.2898L27.1349 27.9927Z" fill="#111111"/>
<path d="M8.98195 29.5738C8.69112 29.5738 8.45508 29.3383 8.45508 29.0469V26.3999C8.45508 26.1086 8.69112 25.873 8.98195 25.873C9.27279 25.873 9.50883 26.1086 9.50883 26.3999V29.0469C9.50883 29.3383 9.27332 29.5738 8.98195 29.5738Z" fill="#D75523"/>
<path d="M10.306 28.25H7.65896C7.36812 28.25 7.13208 28.0145 7.13208 27.7232C7.13208 27.4318 7.36812 27.1963 7.65896 27.1963H10.306C10.5968 27.1963 10.8328 27.4318 10.8328 27.7232C10.8328 28.0145 10.5968 28.25 10.306 28.25Z" fill="#D75523"/>
<path d="M14.218 24.3245C13.7449 24.3245 13.2718 24.1444 12.9119 23.7845C12.1911 23.0643 12.1911 21.892 12.9119 21.1717C13.6095 20.4736 14.8266 20.4731 15.5252 21.1717C15.874 21.5205 16.0663 21.9847 16.0663 22.4779C16.0663 22.9715 15.874 23.4357 15.5252 23.7845C15.1643 24.1449 14.6912 24.3245 14.218 24.3245ZM14.218 21.6839C14.0057 21.6839 13.8065 21.7666 13.6569 21.9162C13.5068 22.0664 13.424 22.2655 13.424 22.4773C13.424 22.6897 13.5068 22.8888 13.6564 23.039C13.9562 23.3388 14.4794 23.3388 14.7792 23.039C14.9293 22.8888 15.0115 22.6897 15.0115 22.4773C15.0115 22.2655 14.9288 22.0658 14.7792 21.9162C14.6295 21.7666 14.4304 21.6839 14.218 21.6839Z" fill="#D75523"/>
<path d="M23.9731 44.8216C23.7692 44.8216 23.5837 44.7041 23.4968 44.5197L21.8139 40.956C21.737 40.7926 21.7486 40.6014 21.8456 40.4491C21.9425 40.2968 22.1101 40.2041 22.2908 40.2041H25.657C25.8377 40.2041 26.0052 40.2968 26.1022 40.4491C26.1991 40.6014 26.2107 40.7926 26.1338 40.956L24.451 44.5197C24.3624 44.7047 24.177 44.8216 23.9731 44.8216ZM23.1217 41.2584L23.9731 43.0613L24.8245 41.2584H23.1217Z" fill="#D75523"/>
<path d="M38.7256 28.2502C38.6271 28.2502 38.5291 28.2228 38.4437 28.1685C38.2915 28.0716 38.1987 27.9041 38.1987 27.7233V24.3571C38.1987 24.1764 38.2915 24.0089 38.4437 23.9119C38.596 23.8155 38.7873 23.8034 38.9506 23.8803L42.5149 25.5637C42.6998 25.6506 42.8168 25.8366 42.8168 26.04C42.8168 26.2433 42.6988 26.4293 42.5149 26.5163L38.9506 28.1991C38.8789 28.2339 38.8025 28.2502 38.7256 28.2502ZM39.2525 25.1891V26.8919L41.056 26.0405L39.2525 25.1891Z" fill="#D75523"/>
<path d="M8.98247 23.3638C8.9419 23.3638 8.9008 23.3591 8.85971 23.3496C8.57678 23.2821 8.40185 22.9981 8.46929 22.7147C10.1853 15.5139 16.5605 10.4849 23.9731 10.4849C26.2951 10.4849 28.5337 10.9733 30.6275 11.9364C30.892 12.0581 31.008 12.3711 30.8857 12.6356C30.7645 12.899 30.4521 13.0149 30.1871 12.8943C28.2324 11.9944 26.1417 11.5386 23.9731 11.5386C17.05 11.5386 11.0968 16.2352 9.49459 22.9592C9.43716 23.201 9.22062 23.3638 8.98247 23.3638Z" fill="#D75523"/>
<path d="M16.3002 19.5674C16.1685 19.5674 16.0368 19.5184 15.9351 19.4204C15.7254 19.2186 15.7191 18.8851 15.9209 18.6754C18.0468 16.4651 20.9067 15.248 23.9731 15.248C24.5653 15.248 25.1591 15.2949 25.7392 15.3871C26.0263 15.433 26.2223 15.7033 26.1765 15.9904C26.1312 16.2776 25.8651 16.473 25.5732 16.4282C25.0484 16.3445 24.51 16.3018 23.9731 16.3018C21.1959 16.3018 18.6058 17.404 16.6801 19.4061C16.5763 19.5136 16.4382 19.5674 16.3002 19.5674Z" fill="#D75523"/>
<path d="M28.5954 5.67362V2.35062C28.5954 1.19993 27.6591 0.263672 26.509 0.263672H21.4378C20.2866 0.263672 19.3508 1.19993 19.3508 2.35062V5.6731C9.8439 7.79061 2.71265 16.2865 2.71265 26.422C2.71265 38.1449 12.2501 47.6824 23.9731 47.6824C35.6961 47.6824 45.2336 38.1449 45.2336 26.422C45.2336 16.2865 38.1023 7.79061 28.5954 5.67362ZM20.4046 2.35062C20.4046 1.78107 20.8677 1.31742 21.4378 1.31742H26.509C27.0785 1.31742 27.5422 1.78107 27.5422 2.35062V5.46656C26.3809 5.26951 25.1897 5.1615 23.9731 5.1615C22.7566 5.1615 21.5653 5.27004 20.4046 5.46709V2.35062ZM23.9731 46.6287C12.8313 46.6287 3.7664 37.5643 3.7664 26.422C3.7664 15.2796 12.8313 6.21525 23.9731 6.21525C35.1149 6.21525 44.1798 15.2801 44.1798 26.4225C44.1798 37.5648 35.1149 46.6287 23.9731 46.6287Z" fill="#111111"/>
</svg>
