<svg width="87" height="87" viewBox="0 0 87 87" fill="none" xmlns="http://www.w3.org/2000/svg">
<rect x="0.77771" y="0.242432" width="85.8586" height="85.8586" rx="42.9293" fill="#D75523"/>
<path d="M62.3791 69.8992C62.1757 64.2686 61.9723 58.6381 61.7689 53.0145C61.58 51.5205 60.367 43.2262 53.0812 38.4906C49.2967 36.0312 45.5195 35.6013 44.5752 35.5167C39.1272 35.0093 35.0667 37.053 33.7955 37.7577C28.8342 40.499 26.7785 44.6356 26.379 45.4671C23.6768 51.14 25.1805 56.4182 25.7616 58.3421C26.2991 60.1179 27.3524 63.578 30.6575 66.5801C31.3403 67.2002 34.0279 69.5328 38.3354 70.5405C39.8173 70.8858 44.2265 71.8583 48.7955 69.8147C49.8125 69.3637 51.6067 68.4123 53.7495 66.1432C59.4662 60.0968 61.2023 51.5065 61.7616 47.7927C62.2193 44.4524 62.9747 37.5815 62.3718 30.3301C61.9578 25.3901 61.0788 22.2683 59.8294 19.527C59.4662 18.7236 59.074 17.9696 58.6745 17.2649C58.6381 17.2156 58.3549 16.8844 57.919 16.8914C57.8536 16.8914 57.5776 16.8984 57.4033 17.0958C57.2217 17.3001 57.258 17.6032 57.2798 17.7511C57.3815 18.4558 57.643 20.0062 57.6503 19.9991C57.6575 19.9991 57.396 19.224 56.4808 16.5602C56.4517 16.5038 56.2628 16.1374 55.8197 16.0246C55.718 15.9964 55.4275 15.94 55.1369 16.088C55.0643 16.1233 54.89 16.2149 54.781 16.4122C54.5994 16.7505 54.7665 17.0958 54.7883 17.1451C55.2386 18.9562 55.4202 19.8653 55.3476 19.8864C55.2532 19.9146 54.7883 18.6743 53.9529 16.1797C53.9166 16.0599 53.8149 15.8132 53.5752 15.5947C53.3427 15.3904 53.103 15.327 53.0449 15.3129C52.9069 15.2776 52.7253 15.2353 52.5146 15.3058C52.2895 15.3833 52.1732 15.5454 52.1442 15.5947C52.0062 15.7991 52.0062 16.0035 52.0134 16.1021C52.0207 16.3065 52.0861 16.4686 52.1297 16.5531C52.9505 18.484 53.3064 19.4777 53.2047 19.5199C53.0958 19.5693 52.4929 18.625 51.4033 16.68C51.3669 16.6236 51.2362 16.4052 50.9602 16.3065C50.8657 16.2713 50.6841 16.229 50.4735 16.2854C50.2556 16.3417 50.1321 16.4756 50.074 16.5461C50.0231 16.6025 49.8778 16.7716 49.8488 17.0253C49.8197 17.2649 49.9069 17.4411 49.9432 17.5115C50.4081 18.3642 52.551 21.1549 52.166 21.6834C52.057 21.8314 51.7374 21.7961 51.2943 21.7327C50.6987 21.6552 50.5098 21.4297 49.7471 21.3169C49.4929 21.2817 49.2749 21.2676 49.0425 21.3592C48.9553 21.3945 48.6938 21.5072 48.6067 21.7398C48.505 22.0216 48.7083 22.3106 48.8754 22.5502C49.0715 22.8321 49.2386 22.9448 49.5219 23.1985C49.5219 23.1985 49.6672 23.3324 50.2919 24.016C53.2701 27.2787 53.7059 29.9143 53.7059 29.9143C53.9093 30.7177 53.8076 31.3449 53.7931 31.669C53.4662 38.3637 54.0183 45.0725 54.1127 51.7742C54.12 52.042 54.1272 52.5776 54.0546 53.2823C53.9602 54.1984 53.6841 56.6719 51.9553 59.0961C51.396 59.8783 50.3427 61.3159 48.3742 62.3448C45.2071 63.9938 42.0473 63.2891 41.0231 63.0636C40.0425 62.8451 38.0594 62.38 36.2144 60.7592C34.1296 58.9199 33.4977 56.7213 33.1781 55.5515C32.8802 54.4521 32.0086 51.281 33.6647 47.9266C33.9989 47.25 35.0885 45.2416 37.4492 43.797C39.1272 42.7681 40.7035 42.4862 41.4154 42.3594C42.0618 42.2466 43.3476 42.0352 44.9965 42.2819C45.6357 42.3735 47.5534 42.7259 49.5074 44.093C50.9456 45.0937 51.7011 46.1578 52.4565 47.2148C53.1757 48.2155 54.5849 50.238 54.8609 53.0357C54.8609 53.0498 54.8609 53.0639 54.8682 53.085C55.1733 56.3266 55.2967 61.4921 54.9263 69.9697C57.4105 69.9838 59.8948 69.9415 62.3791 69.8992Z" fill="white"/>
</svg>
