<svg width="48" height="48" viewBox="0 0 48 48" fill="none" xmlns="http://www.w3.org/2000/svg">
<path d="M32.4357 26.9795C39.1892 26.9795 44.664 21.5047 44.664 14.7512C44.664 7.99773 39.1892 2.52295 32.4357 2.52295C25.6822 2.52295 20.2075 7.99773 20.2075 14.7512C20.2075 21.5047 25.6822 26.9795 32.4357 26.9795Z" fill="#D75523"/>
<path d="M36.9675 6.42233C36.831 6.42233 36.6944 6.37006 36.5904 6.26606C36.3819 6.05753 36.3819 5.72046 36.5904 5.51193L38.672 3.43033C38.8806 3.22179 39.2176 3.22179 39.4262 3.43033C39.6347 3.63886 39.6347 3.97646 39.4262 4.18446L37.3446 6.26606C37.2406 6.37059 37.104 6.42233 36.9675 6.42233Z" fill="#111111"/>
<path d="M39.7248 9.17957C39.5883 9.17957 39.4517 9.1273 39.3477 9.0233C39.1392 8.81477 39.1392 8.4777 39.3477 8.26917L41.5787 6.03824C41.7872 5.8297 42.1243 5.8297 42.3328 6.03824C42.5413 6.24677 42.5413 6.58384 42.3328 6.79237L40.1019 9.0233C39.9979 9.12784 39.8613 9.17957 39.7248 9.17957Z" fill="#111111"/>
<path d="M42.4822 11.9375C42.3457 11.9375 42.2091 11.8852 42.1051 11.7812C41.8966 11.5727 41.8966 11.2351 42.1051 11.0271L43.3553 9.77749C43.5638 9.56896 43.9009 9.56896 44.1094 9.77749C44.3179 9.98603 44.3179 10.3236 44.1094 10.5316L42.8593 11.7812C42.7553 11.8858 42.6187 11.9375 42.4822 11.9375Z" fill="#111111"/>
<path d="M28.7595 30.8869C28.3872 30.8869 28.0235 30.7515 27.7494 30.4773L17.9115 20.64C17.336 20.0645 17.3723 19.0917 17.9915 18.472L23.2411 13.2229C23.5323 12.9317 23.9126 12.7584 24.3115 12.736C24.7227 12.7088 25.1264 12.8603 25.4091 13.1429L25.4539 13.1872C26.384 11.0245 24.4182 5.96587 21.9286 3.22667L21.6576 2.928L21.871 2.5856C22.6096 1.39947 23.4635 0.792533 24.4822 0.729067C26.2027 0.6208 28.3014 2.144 31.0982 5.50667L35.9152 0.674133C36.3494 0.238933 36.9286 0 37.5456 0C38.1627 0 38.7419 0.238933 39.1766 0.6736L39.4267 0.923733C39.8608 1.35787 40.1003 1.93707 40.1003 2.55467C40.1003 2.58133 40.0998 2.60853 40.0987 2.6352C40.816 2.52587 41.5654 2.76427 42.0832 3.28213L42.3334 3.53227C42.8246 4.02293 43.0475 4.68213 43.0022 5.32533C43.6763 5.24747 44.3792 5.4688 44.8955 5.98507L45.1456 6.2352C45.9355 7.02507 46.0315 8.2512 45.4331 9.14667C45.8672 9.23147 46.2816 9.44213 46.6176 9.7776L46.8678 10.0277C47.3019 10.4619 47.5414 11.0411 47.5414 11.6587C47.5414 12.2763 47.3024 12.8555 46.8678 13.2896L39.7995 20.3557C38.4752 21.7488 36.8032 22.7899 35.3936 23.1536C35.8102 23.7365 35.7275 24.5867 35.1664 25.1477L29.9168 30.3973C29.592 30.7221 29.1702 30.8869 28.7595 30.8869ZM24.3979 13.8C24.3883 13.8 24.3798 13.8 24.3718 13.8005C24.2374 13.808 24.0998 13.8725 23.9958 13.9771L18.7462 19.2261C18.5462 19.4267 18.5094 19.7285 18.6662 19.8859L28.504 29.7237C28.5963 29.8165 28.7216 29.8213 28.7867 29.8203C28.9216 29.8123 29.0587 29.7477 29.1632 29.6437L34.4128 24.3941C34.6134 24.1936 34.6496 23.8917 34.4928 23.7349L32.9179 22.1605L34.2966 22.2261C35.5392 22.2779 37.5387 21.1861 39.0363 19.6117L46.1131 12.5349C46.3462 12.3019 46.4742 11.9909 46.4742 11.6581C46.4742 11.3259 46.3462 11.0144 46.1131 10.7813L45.863 10.5312C45.3798 10.0485 44.5942 10.048 44.112 10.5296L44.1099 10.5312L43.3558 9.77707L44.391 8.74187C44.624 8.5088 44.752 8.19787 44.752 7.86507C44.752 7.53227 44.624 7.22133 44.391 6.98827L44.1408 6.73813C43.6576 6.25493 42.871 6.25493 42.3878 6.73813L42.3323 6.7936L41.5792 6.0384C41.8123 5.80533 41.9403 5.4944 41.9403 5.1616C41.9403 4.8288 41.8123 4.51787 41.5792 4.2848L41.3291 4.03467C40.8635 3.56907 40.0416 3.56853 39.576 4.03467L39.4299 4.18133C39.4294 4.18187 39.4283 4.1824 39.4278 4.18293L38.6726 3.4288L38.6747 3.42667C38.9067 3.19413 39.0342 2.8832 39.0342 2.552C39.0342 2.2192 38.9062 1.90827 38.6731 1.6752L38.423 1.42507C37.9574 0.959467 37.1355 0.959467 36.6699 1.42507L31.0182 7.09707L30.6454 6.63627C27.9712 3.33813 25.9088 1.6976 24.5472 1.7936C23.9755 1.8288 23.4758 2.15893 22.9936 2.824C25.6907 6.0112 28.0454 12.0272 25.9435 14.3877L25.5675 14.8101L24.6544 13.8971C24.5734 13.8155 24.4667 13.8 24.3979 13.8Z" fill="#111111"/>
<path d="M30.4229 19.4442C30.2864 19.4442 30.1499 19.3919 30.0459 19.2879L25.168 14.41C24.9595 14.2015 24.9595 13.8644 25.168 13.6559C25.3765 13.4474 25.7136 13.4474 25.9221 13.6559L30.8 18.5338C31.0085 18.7423 31.0085 19.0794 30.8 19.2879C30.696 19.3919 30.5595 19.4442 30.4229 19.4442Z" fill="#111111"/>
<path d="M29.2389 26.4499C28.6907 26.4499 28.1419 26.2409 27.7243 25.8233C26.8896 24.9886 26.8896 23.6297 27.7243 22.7945C28.5589 21.9603 29.9168 21.9593 30.7531 22.7945C31.5877 23.6297 31.5877 24.9886 30.7531 25.8233C30.3355 26.2409 29.7872 26.4499 29.2389 26.4499ZM29.2384 23.2339C28.9632 23.2339 28.688 23.3385 28.4784 23.5481C28.0592 23.9673 28.0592 24.6494 28.4784 25.0686C28.8976 25.4878 29.5803 25.4873 29.9989 25.0686C30.4181 24.6494 30.4181 23.9673 29.9989 23.5481C29.7893 23.339 29.5141 23.2339 29.2384 23.2339Z" fill="#111111"/>
<path d="M6.50185 42.49C6.36532 42.49 6.22878 42.4377 6.12478 42.3337C5.91625 42.1252 5.91625 41.7881 6.12478 41.5796L19.8283 27.8766C20.0368 27.6681 20.3739 27.6681 20.5824 27.8766C20.7909 28.0851 20.7909 28.4222 20.5824 28.6307L6.87892 42.3337C6.77492 42.4377 6.63838 42.49 6.50185 42.49Z" fill="#D75523"/>
<path d="M16.9904 40.8356C16.8539 40.8356 16.7174 40.7834 16.6134 40.6794C16.4048 40.4708 16.4048 40.1338 16.6134 39.9252L24.2934 32.2458C24.5019 32.0372 24.839 32.0372 25.0475 32.2458C25.256 32.4543 25.256 32.7914 25.0475 32.9999L17.3675 40.6794C17.2635 40.7839 17.127 40.8356 16.9904 40.8356Z" fill="#D75523"/>
<path d="M2.64375 48C2.34935 48 2.11041 47.7616 2.11041 47.4666V44.1637C2.11041 43.8688 2.34935 43.6304 2.64375 43.6304C2.93815 43.6304 3.17708 43.8688 3.17708 44.1637V47.4666C3.17708 47.7616 2.93815 48 2.64375 48Z" fill="#D75523"/>
<path d="M4.29548 46.3484H0.992013C0.697613 46.3484 0.458679 46.11 0.458679 45.8151C0.458679 45.5201 0.697613 45.2817 0.992013 45.2817H4.29495C4.58935 45.2817 4.82828 45.5201 4.82828 45.8151C4.82828 46.11 4.58988 46.3484 4.29548 46.3484Z" fill="#D75523"/>
<path d="M13.112 46.4174C12.5147 46.4174 11.9531 46.1844 11.5307 45.762C10.6587 44.89 10.6587 43.4713 11.5307 42.5993C12.4027 41.7273 13.8208 41.7273 14.6928 42.5993C15.5648 43.4713 15.5648 44.89 14.6928 45.762C14.271 46.1849 13.7094 46.4174 13.112 46.4174ZM13.112 43.0121C12.8123 43.0121 12.5131 43.1262 12.2848 43.354C11.8288 43.81 11.8288 44.5518 12.2848 45.0084C12.7264 45.4494 13.4966 45.4505 13.9387 45.0084C14.3947 44.5524 14.3947 43.8105 13.9387 43.354C13.711 43.1262 13.4112 43.0121 13.112 43.0121Z" fill="#D75523"/>
<path d="M11.4091 29.0801C11.2725 29.0801 11.136 29.0278 11.032 28.9238C10.8235 28.7153 10.8235 28.3782 11.032 28.1697L15.6053 23.5963C15.8139 23.3878 16.1509 23.3878 16.3595 23.5963C16.568 23.8049 16.568 24.1419 16.3595 24.3505L11.7861 28.9238C11.6816 29.0283 11.5451 29.0801 11.4091 29.0801Z" fill="#D75523"/>
<path d="M7.33276 34.8593C6.73543 34.8593 6.17383 34.6263 5.75196 34.2039C4.87996 33.3319 4.87996 31.9132 5.75196 31.0412C6.17436 30.6188 6.73543 30.3857 7.33276 30.3857C7.9301 30.3857 8.4917 30.6188 8.9141 31.0412C9.7861 31.9132 9.7861 33.3319 8.9141 34.2039C8.49116 34.6268 7.9301 34.8593 7.33276 34.8593ZM7.33276 31.4535C7.02076 31.4535 6.72689 31.5756 6.50609 31.7964C6.05009 32.2524 6.05009 32.9943 6.50609 33.4508C6.94769 33.8924 7.71783 33.8924 8.15996 33.4508C8.61596 32.9948 8.61596 32.2529 8.15996 31.7964C7.93863 31.5751 7.64476 31.4535 7.33276 31.4535Z" fill="#D75523"/>
</svg>
