<svg width="113" height="40" viewBox="0 0 113 40" fill="none" xmlns="http://www.w3.org/2000/svg">
<path d="M44.751 10.2641C45.4421 10.2641 46.0161 10.4904 46.4688 10.9431C46.9214 11.3958 47.1478 11.9819 47.1478 12.6973V29.5801C47.1478 30.2713 46.9214 30.8492 46.4688 31.3141C46.0161 31.7789 45.4421 32.0133 44.751 32.0133C44.0598 32.0133 43.4859 31.7789 43.0332 31.3141C42.5805 30.8492 42.3541 30.2713 42.3541 29.5801V27.6238L43.2312 27.9836C43.2312 28.3312 43.0453 28.7475 42.6735 29.2406C42.3016 29.7337 41.7964 30.2187 41.1578 30.6957C40.5191 31.1726 39.7674 31.5808 38.9024 31.9123C38.0374 32.2437 37.0997 32.4094 36.0893 32.4094C34.2543 32.4094 32.589 31.9365 31.1016 30.9907C29.6102 30.0449 28.434 28.7434 27.569 27.0782C26.7041 25.417 26.2716 23.5052 26.2716 21.3509C26.2716 19.1683 26.7041 17.2484 27.569 15.5832C28.434 13.922 29.5981 12.6164 31.0612 11.6706C32.5244 10.7248 34.1492 10.252 35.9316 10.252C37.0755 10.252 38.1264 10.4258 39.0843 10.7693C40.0422 11.1169 40.8748 11.5534 41.5781 12.087C42.2814 12.6205 42.827 13.1581 43.2151 13.7037C43.599 14.2494 43.7931 14.7101 43.7931 15.082L42.3582 15.5993V12.6852C42.3582 11.994 42.5845 11.416 43.0372 10.9512C43.4859 10.4945 44.0598 10.2641 44.751 10.2641ZM36.6875 28.024C37.8596 28.024 38.8822 27.733 39.7593 27.1469C40.6364 26.5608 41.3235 25.7646 41.8166 24.7541C42.3097 23.7437 42.5562 22.6119 42.5562 21.363C42.5562 20.0858 42.3097 18.9419 41.8166 17.9315C41.3235 16.921 40.6404 16.1207 39.7593 15.5387C38.8822 14.9526 37.8556 14.6616 36.6875 14.6616C35.5436 14.6616 34.5332 14.9567 33.6561 15.5387C32.779 16.1248 32.0919 16.921 31.5988 17.9315C31.1057 18.9419 30.8591 20.0858 30.8591 21.363C30.8591 22.616 31.1057 23.7437 31.5988 24.7541C32.0919 25.7646 32.775 26.5649 33.6561 27.1469C34.5332 27.733 35.5436 28.024 36.6875 28.024Z" fill="#02532A"/>
<path d="M68.1776 10.6602C68.8687 10.6602 69.4427 10.8946 69.8954 11.3594C70.348 11.8242 70.5744 12.4022 70.5744 13.0974V30.0611C70.5744 32.5104 70.1177 34.4586 69.1961 35.9096C68.2786 37.3607 67.0458 38.4034 65.5059 39.0421C63.9619 39.6807 62.232 40 60.3162 40C59.4633 40 58.562 39.9313 57.6041 39.8019C56.6462 39.6686 55.862 39.4705 55.2477 39.2037C54.4474 38.8561 53.8977 38.4277 53.5905 37.9063C53.2833 37.3889 53.2227 36.8352 53.4127 36.2491C53.6511 35.4772 54.0392 34.9517 54.5686 34.6728C55.1022 34.3939 55.6599 34.3616 56.246 34.5718C56.6704 34.7052 57.2282 34.9113 57.9234 35.1902C58.6145 35.4691 59.4148 35.6105 60.3162 35.6105C61.5408 35.6105 62.5553 35.4448 63.3678 35.1134C64.1802 34.7819 64.7905 34.2201 65.2028 33.436C65.615 32.6519 65.8212 31.5808 65.8212 30.2227V27.547L66.6578 28.5049C66.2051 29.382 65.6393 30.1096 64.9603 30.6795C64.2812 31.2534 63.4769 31.6859 62.5473 31.9769C61.6136 32.2679 60.5506 32.4175 59.3542 32.4175C57.9436 32.4175 56.7149 32.0901 55.664 31.4393C54.6131 30.7886 53.7966 29.8832 53.2106 28.7273C52.6245 27.5713 52.3335 26.2456 52.3335 24.7541V13.1014C52.3335 12.4103 52.5598 11.8323 53.0125 11.3634C53.4652 10.8986 54.0351 10.6642 54.7303 10.6642C55.4215 10.6642 55.9954 10.8986 56.4481 11.3634C56.9008 11.8283 57.1271 12.4062 57.1271 13.1014V23.3192C57.1271 25.0492 57.5071 26.2658 58.2629 26.9731C59.0228 27.6804 60.0777 28.0321 61.4358 28.0321C62.3654 28.0321 63.1535 27.8542 63.7922 27.4945C64.4308 27.1348 64.9239 26.6012 65.2674 25.898C65.611 25.1947 65.7848 24.3338 65.7848 23.3233V13.1055C65.7848 12.4143 66.0111 11.8363 66.4638 11.3675C66.9165 10.8946 67.4864 10.6602 68.1776 10.6602Z" fill="#02532A"/>
<path d="M78.1569 32.0174C77.4658 32.0174 76.8918 31.783 76.4392 31.3182C75.9865 30.8534 75.7601 30.2754 75.7601 29.5842V13.1015C75.7601 12.4104 75.9865 11.8324 76.4392 11.3635C76.8918 10.8987 77.4617 10.6643 78.1569 10.6643C78.8481 10.6643 79.4221 10.8987 79.8747 11.3635C80.3274 11.8284 80.5538 12.4063 80.5538 13.1015V16.8524L80.2749 14.1767C80.5659 13.5381 80.9458 12.9722 81.4106 12.4791C81.8755 11.986 82.4009 11.5737 82.987 11.2423C83.573 10.9109 84.1955 10.6643 84.8624 10.5026C85.5253 10.341 86.1922 10.2642 86.8591 10.2642C87.6553 10.2642 88.3303 10.4905 88.8759 10.9432C89.4216 11.3959 89.6924 11.9294 89.6924 12.5397C89.6924 13.4168 89.4661 14.0514 89.0134 14.4354C88.5607 14.8234 88.0676 15.0133 87.5381 15.0133C87.0329 15.0133 86.5721 14.9204 86.1598 14.7345C85.7476 14.5485 85.2747 14.4556 84.7452 14.4556C84.2642 14.4556 83.7792 14.5687 83.2901 14.7951C82.797 15.0214 82.3443 15.3731 81.932 15.854C81.5198 16.331 81.1883 16.9251 80.9337 17.6284C80.6791 18.3357 80.5538 19.1643 80.5538 20.1222V29.5802C80.5538 30.2713 80.3274 30.8493 79.8747 31.3141C79.4221 31.783 78.8481 32.0174 78.1569 32.0174Z" fill="#02532A"/>
<path d="M110.565 10.2641C111.256 10.2641 111.83 10.4904 112.282 10.9431C112.735 11.3958 112.961 11.9819 112.961 12.6973V29.5801C112.961 30.2713 112.735 30.8492 112.282 31.3141C111.83 31.7789 111.256 32.0133 110.565 32.0133C109.873 32.0133 109.299 31.7789 108.847 31.3141C108.394 30.8492 108.168 30.2713 108.168 29.5801V27.6238L109.045 27.9836C109.045 28.3312 108.859 28.7475 108.487 29.2406C108.115 29.7337 107.61 30.2187 106.971 30.6957C106.333 31.1726 105.581 31.5808 104.716 31.9123C103.851 32.2437 102.913 32.4094 101.903 32.4094C100.068 32.4094 98.4026 31.9365 96.9152 30.9907C95.4238 30.0449 94.2476 28.7434 93.3826 27.0782C92.5177 25.417 92.0852 23.5052 92.0852 21.3509C92.0852 19.1683 92.5177 17.2484 93.3826 15.5832C94.2476 13.922 95.4117 12.6164 96.8748 11.6706C98.338 10.7248 99.9628 10.252 101.745 10.252C102.889 10.252 103.94 10.4258 104.898 10.7693C105.856 11.1129 106.688 11.5534 107.392 12.087C108.095 12.6205 108.641 13.1581 109.029 13.7037C109.413 14.2494 109.607 14.7101 109.607 15.082L108.172 15.5993V12.6852C108.172 11.994 108.398 11.416 108.851 10.9512C109.304 10.4945 109.873 10.2641 110.565 10.2641ZM102.505 28.024C103.677 28.024 104.7 27.733 105.577 27.1469C106.454 26.5608 107.141 25.7646 107.634 24.7541C108.127 23.7437 108.374 22.6119 108.374 21.363C108.374 20.0858 108.127 18.9419 107.634 17.9315C107.141 16.921 106.458 16.1207 105.577 15.5387C104.7 14.9526 103.673 14.6616 102.505 14.6616C101.361 14.6616 100.351 14.9567 99.4737 15.5387C98.5966 16.1248 97.9095 16.921 97.4164 17.9315C96.9233 18.9419 96.6767 20.0858 96.6767 21.363C96.6767 22.616 96.9233 23.7437 97.4164 24.7541C97.9095 25.7646 98.5926 26.5649 99.4737 27.1469C100.347 27.733 101.361 28.024 102.505 28.024Z" fill="#02532A"/>
<path d="M20.9 31.3341C20.7869 28.1047 20.6737 24.8752 20.5605 21.6498C20.4554 20.793 19.7804 16.0357 15.7264 13.3196C13.6206 11.909 11.5189 11.6624 10.9934 11.6139C7.96204 11.3229 5.70265 12.495 4.99532 12.8992C2.23474 14.4715 1.09089 16.8441 0.86859 17.321C-0.63498 20.5747 0.201683 23.602 0.525031 24.7055C0.824128 25.724 1.4102 27.7086 3.24924 29.4304C3.62918 29.7861 5.12466 31.1239 7.52148 31.7019C8.34602 31.9 10.7994 32.4578 13.3418 31.2856C13.9076 31.0269 14.906 30.4813 16.0983 29.1798C19.2792 25.7119 20.2452 20.7849 20.5565 18.6548C20.8111 16.739 21.2315 12.7982 20.896 8.63909C20.6656 5.80575 20.1765 4.01522 19.4813 2.44293C19.2792 1.98216 19.061 1.54968 18.8387 1.1455C18.8185 1.1172 18.6608 0.927237 18.4183 0.931279C18.3819 0.931279 18.2284 0.935318 18.1314 1.04849C18.0303 1.1657 18.0505 1.33951 18.0626 1.42439C18.1192 1.82857 18.2647 2.71778 18.2688 2.71374C18.2728 2.71374 18.1273 2.26913 17.618 0.741311C17.6019 0.708976 17.4968 0.498802 17.2502 0.434132C17.1936 0.417965 17.032 0.385628 16.8703 0.470507C16.8299 0.490717 16.7329 0.543257 16.6722 0.656429C16.5712 0.850438 16.6642 1.04849 16.6763 1.07679C16.9269 2.11554 17.0279 2.63694 16.9875 2.64907C16.935 2.66523 16.6763 1.95387 16.2115 0.523054C16.1913 0.454342 16.1347 0.312876 16.0013 0.187579C15.872 0.070365 15.7386 0.0339846 15.7062 0.0259009C15.6294 0.00569158 15.5284 -0.0185573 15.4112 0.0218612C15.2859 0.0663216 15.2212 0.159286 15.2051 0.187579C15.1283 0.304793 15.1283 0.422007 15.1323 0.478593C15.1363 0.595807 15.1727 0.688769 15.197 0.737271C15.6537 1.84474 15.8517 2.41464 15.7952 2.43889C15.7345 2.46718 15.3991 1.92557 14.7928 0.810022C14.7726 0.777687 14.6998 0.65239 14.5462 0.595804C14.4937 0.575595 14.3926 0.551344 14.2754 0.583679C14.1542 0.616014 14.0855 0.692807 14.0531 0.733226C14.0248 0.76556 13.944 0.862568 13.9278 1.00807C13.9117 1.1455 13.9602 1.24655 13.9804 1.28696C14.239 1.77603 15.4314 3.3766 15.2172 3.67974C15.1565 3.76462 14.9787 3.74441 14.7322 3.70803C14.4007 3.66357 14.2956 3.53423 13.8712 3.46956C13.7298 3.44935 13.6085 3.44127 13.4792 3.49381C13.4307 3.51402 13.2852 3.5787 13.2367 3.71208C13.1801 3.87375 13.2933 4.03946 13.3862 4.17689C13.4953 4.33856 13.5883 4.40323 13.7459 4.54874C13.7459 4.54874 13.8268 4.62553 14.1744 5.01759C15.8315 6.88897 16.074 8.40063 16.074 8.40063C16.1872 8.8614 16.1306 9.22112 16.1226 9.40705C15.9407 13.2468 16.2478 17.0947 16.3004 20.9385C16.3044 21.0921 16.3085 21.3992 16.2681 21.8034C16.2155 22.3289 16.0619 23.7476 15.1 25.138C14.7887 25.5866 14.2027 26.4111 13.1073 27.0012C11.3451 27.947 9.58687 27.5429 9.01697 27.4135C8.47132 27.2882 7.36789 27.0215 6.34126 26.0918C5.18125 25.0369 4.82961 23.7758 4.65177 23.1049C4.48605 22.4744 4.00103 20.6555 4.92257 18.7316C5.1085 18.3436 5.71477 17.1917 7.02838 16.3631C7.96204 15.773 8.83913 15.6113 9.23523 15.5385C9.59495 15.4739 10.3104 15.3526 11.2279 15.4941C11.5835 15.5466 12.6506 15.7487 13.7379 16.5328C14.5381 17.1068 14.9585 17.7171 15.3789 18.3234C15.779 18.8973 16.5631 20.0573 16.7167 21.662C16.7167 21.67 16.7167 21.6781 16.7207 21.6902C16.8905 23.5495 16.9592 26.5122 16.7531 31.3745C18.1354 31.3826 19.5177 31.3584 20.9 31.3341Z" fill="#02532A"/>
</svg>
