<svg width="388" height="388" viewBox="0 0 388 388" fill="none" xmlns="http://www.w3.org/2000/svg">
<mask id="mask0_2814_1130" style="mask-type:alpha" maskUnits="userSpaceOnUse" x="26" y="113" width="356" height="206">
<path d="M250.513 270.615C223.891 319.486 154.558 333.092 95.6544 301.004C36.7508 268.916 10.5817 203.286 37.2042 154.415C63.8266 105.544 308.802 102.13 367.706 134.218C426.609 166.305 277.135 221.744 250.513 270.615Z" fill="#FFCB3C"/>
</mask>
<g mask="url(#mask0_2814_1130)">
<path fill-rule="evenodd" clip-rule="evenodd" d="M137.606 193.747C132.263 187.861 125.064 183.346 115.767 180.867C84.0235 172.402 62.6688 184.274 49.3706 205.031C30.6868 234.209 28.5835 281.511 34.8154 308.978C35.5445 312.188 38.9562 314.658 42.4307 314.501C45.9021 314.337 48.1344 311.606 47.4052 308.397C41.6267 282.929 43.4322 239.033 60.7611 211.98C71.4741 195.243 88.3904 185.171 113.978 191.992C119.512 193.468 123.87 196.056 127.237 199.404C124.757 200.859 122.333 202.35 119.974 203.877C110.538 209.998 90.3707 230.278 83.339 249.436C77.778 264.597 80.2855 279.008 96.9661 287.615C106.515 292.546 116.055 291.608 124.458 286.129C134.819 279.371 143.492 265.124 147.512 249.124C150.86 235.822 150.991 221.379 146.722 209.293C146.125 207.6 145.444 205.949 144.682 204.348C194.168 178.905 264.179 168.419 323.789 180.179C327.329 180.878 330.381 178.903 330.608 175.766C330.832 172.635 328.133 169.526 324.593 168.827C262.418 156.558 189.42 167.352 137.606 193.747ZM134.132 210.184C132.216 211.328 130.333 212.496 128.497 213.69C120.026 219.183 101.931 237.389 95.6182 254.587C92.2789 263.688 91.9388 272.557 101.95 277.727C106.861 280.263 111.601 279.15 115.918 276.332C121.645 272.598 126.563 265.984 130.268 258.109C136.005 245.888 138.754 230.589 136.161 217.298C135.682 214.843 135.015 212.455 134.132 210.184Z" fill="#111111"/>
<path fill-rule="evenodd" clip-rule="evenodd" d="M251.419 219.617C268.039 199.989 298.34 185.979 326.006 179.903C329.296 179.18 330.89 176.057 329.564 172.926C328.235 169.8 324.482 167.844 321.192 168.568C291.297 175.138 258.716 190.472 240.764 211.682C238.778 214.03 239.553 217.712 242.495 219.901C245.437 222.09 249.433 221.965 251.419 219.617Z" fill="#111111"/>
<path fill-rule="evenodd" clip-rule="evenodd" d="M322.203 167.913C297.911 166.54 267.641 151.602 248.578 135.202C245.808 132.823 241.756 132.646 239.533 134.802C237.31 136.958 237.745 140.637 240.512 143.021C261.949 161.451 296.101 177.982 323.415 179.526C326.945 179.728 329.545 177.285 329.208 174.081C328.871 170.878 325.733 168.115 322.203 167.913Z" fill="#111111"/>
</g>
</svg>
