<svg width="48" height="48" viewBox="0 0 48 48" fill="none" xmlns="http://www.w3.org/2000/svg">
<g clip-path="url(#clip0_2797_2260)">
<path d="M24.7323 30.228C28.4688 30.228 31.4979 27.1989 31.4979 23.4624C31.4979 19.7258 28.4688 16.6968 24.7323 16.6968C20.9957 16.6968 17.9667 19.7258 17.9667 23.4624C17.9667 27.1989 20.9957 30.228 24.7323 30.228Z" fill="#D75523"/>
<path d="M24.0716 47.6824C20.3023 47.6824 16.5452 46.7772 13.1021 44.9785C7.49137 42.0459 3.35803 37.1044 1.46444 31.0632C-0.429672 25.0221 0.141987 18.6052 3.07457 12.9946C7.77588 3.99869 17.6711 -1.00452 27.6954 0.54186C27.991 0.587698 28.1933 0.86378 28.148 1.15936C28.1027 1.45493 27.8256 1.65778 27.5305 1.61194C17.9598 0.135112 8.52035 4.91071 4.03349 13.4961C1.23525 18.8502 0.68941 24.9741 2.49712 30.7392C4.30483 36.5042 8.24901 41.2203 13.6036 44.0185C19.6601 47.184 26.7392 47.4501 33.0232 44.7488C33.2956 44.6323 33.6159 44.7577 33.734 45.0328C33.852 45.3073 33.725 45.626 33.45 45.7435C30.4378 47.0381 27.2502 47.6824 24.0716 47.6824Z" fill="#D75523"/>
<path d="M40.9469 41.9666H39.6508V40.671C39.6508 40.3717 39.409 40.1299 39.1097 40.1299C38.8105 40.1299 38.5686 40.3717 38.5686 40.671V41.9666H37.273C36.9738 41.9666 36.7319 42.2084 36.7319 42.5077C36.7319 42.8069 36.9738 43.0488 37.273 43.0488H38.5686V44.3449C38.5686 44.6441 38.8105 44.886 39.1097 44.886C39.409 44.886 39.6508 44.6441 39.6508 44.3449V43.0488H40.9469C41.2462 43.0488 41.488 42.8069 41.488 42.5077C41.488 42.2084 41.2457 41.9666 40.9469 41.9666Z" fill="#D75523"/>
<path d="M47.4527 7.64222L42.6302 1.88453C42.538 1.77441 42.4063 1.70539 42.263 1.69275C42.1212 1.68116 41.9774 1.72489 41.8678 1.81709L25.5589 15.4779C25.4999 15.5274 25.4557 15.5864 25.4235 15.6512C25.423 15.6528 25.4214 15.6534 25.4209 15.6549L21.3634 23.9522C21.2696 24.1445 21.2976 24.3737 21.4345 24.538C21.5389 24.6624 21.6922 24.7314 21.8497 24.7314C21.8992 24.7314 21.9493 24.7246 21.9983 24.7109L30.8788 22.1708C30.8835 22.1692 30.8872 22.1655 30.892 22.164C30.9578 22.1434 31.021 22.1128 31.0774 22.0654L47.3858 8.40461C47.6144 8.21283 47.6445 7.87141 47.4527 7.64222ZM26.0268 16.8794L29.7792 21.3594L22.8698 23.3357L26.0268 16.8794ZM30.7966 20.8879L26.669 15.9605L42.1481 2.99466L46.2751 7.92199L30.7966 20.8879Z" fill="#111111"/>
<path d="M32.7165 26.9072C32.7081 26.9072 32.7007 26.9072 32.6923 26.9072H23.4593C23.1606 26.9072 22.9182 26.6654 22.9182 26.3661C22.9182 26.0669 23.1606 25.825 23.4593 25.825H32.6944C32.7007 25.825 32.7076 25.825 32.7144 25.825C34.9136 25.825 36.9779 24.4615 38.2413 22.1727C39.6971 19.5341 42.1154 17.9614 44.7129 17.9614C44.7214 17.9614 44.7287 17.9614 44.7372 17.9614L46.9089 17.9699C47.2077 17.9709 47.449 18.2143 47.4479 18.5131C47.4469 18.8113 47.205 19.0521 46.9068 19.0521H46.9047L44.7329 19.0436C42.5248 19.0241 40.4547 20.4009 39.1886 22.6954C37.7318 25.334 35.3135 26.9072 32.7165 26.9072Z" fill="#111111"/>
<path d="M23.4705 38.7509C17.7992 38.7514 12.4714 35.4748 10.003 30.0132C8.15791 25.9304 8.24853 21.2876 10.2512 17.2749C10.3845 17.0078 10.709 16.8982 10.9772 17.0325C11.2449 17.1658 11.3534 17.4909 11.2196 17.7586C9.36287 21.4788 9.2791 25.7829 10.9893 29.5669C13.9219 36.0548 21.206 39.2182 27.9373 36.9231C28.3578 36.7793 28.7751 36.6144 29.1781 36.4321C29.4516 36.3083 29.7714 36.43 29.8941 36.7024C30.0174 36.9748 29.8962 37.2956 29.6238 37.4184C29.1892 37.6149 28.7398 37.7925 28.2866 37.9474C26.6918 38.4911 25.0674 38.7509 23.4705 38.7509Z" fill="#D75523"/>
<path d="M14.1073 15.2115C13.817 15.2115 13.5267 15.1541 13.2506 15.0387C12.7021 14.81 12.2759 14.3812 12.0493 13.8311C11.8233 13.2816 11.8249 12.6762 12.0541 12.1277C12.5261 10.9955 13.8312 10.458 14.9645 10.9312C16.0968 11.4033 16.6337 12.7094 16.1611 13.8416C15.9324 14.3901 15.5035 14.8164 14.9535 15.0429C14.6805 15.1557 14.3939 15.2115 14.1073 15.2115ZM13.053 12.545C12.8107 13.1267 13.0862 13.7974 13.6679 14.0397C13.9498 14.1578 14.2601 14.1583 14.5425 14.0418C14.8249 13.9259 15.0451 13.7068 15.1626 13.4249C15.405 12.8432 15.1294 12.173 14.5478 11.9301C13.9666 11.6888 13.2959 11.9639 13.053 12.545Z" fill="#D75523"/>
</g>
<defs>
<clipPath id="clip0_2797_2260">
<rect width="48" height="48" fill="white"/>
</clipPath>
</defs>
</svg>
