<svg width="50" height="50" viewBox="0 0 50 50" fill="none" xmlns="http://www.w3.org/2000/svg">
<path d="M2.5678 33.8346C2.5678 35.0288 2.83922 36.0874 3.38205 37.0102C3.8706 37.8787 4.522 38.6115 5.33625 39.2087C6.1505 39.8058 7.04617 40.2672 8.02327 40.5929C8.94609 40.8643 9.81462 41 10.6289 41C11.8774 41 13.153 40.7286 14.4558 40.1858C15.7044 39.5886 16.8443 38.7472 17.8757 37.6616C18.9071 36.5759 19.7485 35.2731 20.3999 33.7532C21.0513 32.2332 21.377 30.5505 21.377 28.7048C21.377 25.5021 20.7798 22.7608 19.5856 20.4809C18.3371 18.201 16.8714 16.3011 15.1887 14.7812C13.4516 13.207 11.6874 11.9856 9.89605 11.117C8.05042 10.1942 6.53048 9.54283 5.33625 9.16285V11.7684C6.42192 12.4198 7.58901 13.1255 8.83752 13.8855C10.0318 14.6455 11.1446 15.5411 12.1759 16.5725C13.153 17.6039 13.9673 18.771 14.6187 20.0738C15.2701 21.3766 15.5958 22.8422 15.5958 24.4707C15.5958 25.285 15.5144 25.9364 15.3515 26.4249C15.1887 26.9135 14.9987 27.2935 14.7815 27.5649C14.5101 27.8363 14.2659 28.0263 14.0487 28.1349C13.7773 28.2434 13.5602 28.2977 13.3973 28.2977C12.8002 28.2977 12.0674 28.1349 11.1988 27.8092C10.3303 27.4292 9.51607 27.2392 8.7561 27.2392C8.05042 27.2392 7.34473 27.402 6.63905 27.7277C5.87908 27.9992 5.20054 28.4334 4.60343 29.0305C4.00631 29.5734 3.51776 30.2519 3.13778 31.0662C2.75779 31.8804 2.5678 32.8032 2.5678 33.8346ZM27.9622 33.6718C27.9622 34.866 28.2336 35.9245 28.7765 36.8473C29.265 37.7701 29.9164 38.5301 30.7307 39.1272C31.5449 39.6701 32.4406 40.1043 33.4177 40.43C34.3405 40.7014 35.2362 40.8372 36.1047 40.8372C37.3532 40.8372 38.6017 40.5657 39.8502 40.0229C41.0988 39.4258 42.2387 38.6115 43.2701 37.5802C44.3015 36.4945 45.1429 35.1917 45.7943 33.6718C46.3914 32.1518 46.6899 30.469 46.6899 28.6234C46.6899 25.4207 46.0928 22.6794 44.8986 20.3995C43.6501 18.0653 42.1844 16.1383 40.5016 14.6183C38.7646 13.0441 37.0004 11.8227 35.209 10.9542C33.4177 10.0314 31.9249 9.37998 30.7307 9V11.687C31.8163 12.3384 32.9834 13.0441 34.2319 13.8041C35.4262 14.564 36.539 15.4597 37.5703 16.4911C38.5474 17.5225 39.3888 18.6896 40.0945 19.9924C40.7459 21.2409 41.0716 22.7065 41.0716 24.3893C41.0716 25.9092 40.7731 26.9135 40.1759 27.402C39.5245 27.8906 39.036 28.1349 38.7103 28.1349C38.1675 28.1349 37.4618 27.972 36.5932 27.6463C35.7247 27.3206 34.9105 27.1578 34.1505 27.1578C33.4448 27.1578 32.7391 27.3206 32.0335 27.6463C31.2735 27.9177 30.5949 28.352 29.9978 28.9491C29.4007 29.4919 28.9122 30.1705 28.5322 30.9847C28.1522 31.7447 27.9622 32.6404 27.9622 33.6718Z" fill="#D9D9D9"/>
</svg>
