<svg width="48" height="48" viewBox="0 0 48 48" fill="none" xmlns="http://www.w3.org/2000/svg">
<path d="M36.7472 20.4492C36.1655 20.4492 35.6934 20.9213 35.6934 21.503V24.9303C35.6934 31.3929 30.4357 36.6501 23.9731 36.6501C17.5104 36.6501 12.2528 31.3924 12.2528 24.9303V21.503C12.2528 20.9213 11.7807 20.4492 11.199 20.4492C10.6173 20.4492 10.1453 20.9213 10.1453 21.503V24.9303C10.1453 32.1996 15.7855 38.1728 22.9193 38.7133V45.5748H18.1111C17.5294 45.5748 17.0573 46.0469 17.0573 46.6286C17.0573 47.2103 17.5294 47.6823 18.1111 47.6823H29.8351C30.4168 47.6823 30.8889 47.2103 30.8889 46.6286C30.8889 46.0469 30.4168 45.5748 29.8351 45.5748H25.0268V38.7139C32.1607 38.1733 37.8009 32.2001 37.8009 24.9308V21.5035C37.8009 20.9213 37.3294 20.4492 36.7472 20.4492Z" fill="#111111"/>
<path d="M27.2449 22.198C27.2449 21.6163 27.717 21.1443 28.2987 21.1443H32.0774V17.0731H26.7539C26.1722 17.0731 25.7001 16.601 25.7001 16.0193C25.7001 15.4377 26.1722 14.9656 26.7539 14.9656H32.0774V10.8939H28.2987C27.717 10.8939 27.2449 10.4218 27.2449 9.84015C27.2449 9.25848 27.717 8.7864 28.2987 8.7864H32.0774V8.36754C32.0774 3.89911 28.4415 0.263672 23.973 0.263672C19.5046 0.263672 15.8687 3.89911 15.8687 8.36806V8.78693H19.6474C20.2291 8.78693 20.7012 9.25901 20.7012 9.84068C20.7012 10.4223 20.2291 10.8944 19.6474 10.8944H15.8687V14.9661H20.6769C21.2586 14.9661 21.7307 15.4382 21.7307 16.0199C21.7307 16.6015 21.2586 17.0736 20.6769 17.0736H15.8687V21.1448H19.6474C20.2291 21.1448 20.7012 21.6169 20.7012 22.1985C20.7012 22.7802 20.2291 23.2523 19.6474 23.2523H15.8687V23.6711C15.8687 28.1401 19.5041 31.7755 23.973 31.7755C28.442 31.7755 32.0774 28.1401 32.0774 23.6711V23.2523H28.2987C27.7165 23.2518 27.2449 22.7802 27.2449 22.198Z" fill="#D75523"/>
<path d="M36.7471 18.0912C36.1654 18.0912 35.6934 17.6191 35.6934 17.0374V9.84086C35.6934 9.25919 36.1654 8.78711 36.7471 8.78711C37.3288 8.78711 37.8009 9.25919 37.8009 9.84086V17.0374C37.8009 17.6191 37.3293 18.0912 36.7471 18.0912Z" fill="#626262"/>
<path d="M11.199 18.0912C10.6173 18.0912 10.1453 17.6191 10.1453 17.0374V9.84086C10.1453 9.25919 10.6173 8.78711 11.199 8.78711C11.7807 8.78711 12.2528 9.25919 12.2528 9.84086V17.0374C12.2528 17.6191 11.7812 18.0912 11.199 18.0912Z" fill="#626262"/>
<path d="M6.04984 16.2704C5.46817 16.2704 4.99609 15.7984 4.99609 15.2167V11.6123C4.99609 11.0307 5.46817 10.5586 6.04984 10.5586C6.63151 10.5586 7.10359 11.0307 7.10359 11.6123V15.2167C7.10359 15.7989 6.63204 16.2704 6.04984 16.2704Z" fill="#626262"/>
<path d="M41.8963 16.3188C41.3146 16.3188 40.8425 15.8467 40.8425 15.265V11.6607C40.8425 11.079 41.3146 10.6069 41.8963 10.6069C42.4779 10.6069 42.95 11.079 42.95 11.6607V15.265C42.95 15.8472 42.4779 16.3188 41.8963 16.3188Z" fill="#626262"/>
</svg>
