<svg width="48" height="48" viewBox="0 0 48 48" fill="none" xmlns="http://www.w3.org/2000/svg">
<g clip-path="url(#clip0_2797_2274)">
<path d="M45.0402 27.2294C44.5898 27.1104 44.1256 27.3854 44.0092 27.838C42.6661 33.0482 39.389 37.4756 34.7815 40.3038C34.3831 40.5488 34.2583 41.0699 34.5033 41.4688C34.6629 41.729 34.9411 41.8724 35.2256 41.8724C35.3774 41.8724 35.5302 41.8323 35.6682 41.747C40.6514 38.6874 44.1967 33.897 45.6493 28.26C45.7658 27.8079 45.4934 27.3459 45.0402 27.2294Z" fill="#D75523"/>
<path d="M13.1653 5.01354C16.4088 3.02248 20.1464 1.96978 23.9731 1.96978C27.8736 1.96978 31.6723 3.06041 34.959 5.12471C35.0991 5.21217 35.2546 5.25432 35.4089 5.25432C35.6903 5.25432 35.9658 5.11417 36.1265 4.85811C36.3752 4.4619 36.2556 3.93924 35.8599 3.69056C32.303 1.45661 28.1929 0.275879 23.9731 0.275879C19.8335 0.275879 15.7897 1.41498 12.2797 3.5699C11.8813 3.8149 11.7565 4.33598 12.0009 4.7343C12.2459 5.13367 12.767 5.25854 13.1653 5.01354Z" fill="#D75523"/>
<path d="M13.1643 40.304C8.54575 37.4684 5.26595 33.0294 3.92875 27.805C3.81283 27.3518 3.35234 27.0768 2.89818 27.1948C2.44507 27.3107 2.17162 27.7718 2.28806 28.2254C3.73486 33.8782 7.28283 38.6802 12.2787 41.7476C12.4167 41.8325 12.5695 41.873 12.7207 41.873C13.0052 41.873 13.2834 41.7297 13.4431 41.4695C13.6881 41.0701 13.5632 40.5485 13.1643 40.304Z" fill="#D75523"/>
<path d="M0.263794 21.6138V15.1596C0.412373 15.1501 0.559371 15.1523 0.706896 15.1533C0.723229 15.1544 0.738508 15.1586 0.755368 15.1586C1.36496 15.167 1.96402 15.265 2.55675 15.452C2.5636 15.4542 2.56993 15.4557 2.57677 15.4584C2.74643 15.5126 2.91503 15.5774 3.08363 15.6465C3.12736 15.6644 3.17109 15.6812 3.21535 15.7007C3.35339 15.7603 3.49143 15.8282 3.62894 15.8978C3.70165 15.9352 3.77489 15.9715 3.8476 16.0116C3.96246 16.0743 4.07731 16.1428 4.19165 16.2123C4.2849 16.2692 4.37763 16.3272 4.47089 16.3888C4.571 16.4547 4.6711 16.5248 4.77121 16.5964C4.875 16.6707 4.97932 16.7476 5.08312 16.8277C5.12948 16.8635 5.17638 16.902 5.22274 16.9394V23.0364C3.66688 22.087 2.09205 21.6102 0.516167 21.6102C0.432394 21.6096 0.348094 21.6107 0.263794 21.6138Z" fill="#111111"/>
<path d="M11.8761 21.6138C10.2133 21.5595 8.55573 22.0369 6.91663 23.0358V16.9388C6.96352 16.9014 7.00988 16.863 7.05677 16.8272C7.16004 16.7471 7.26384 16.6707 7.3671 16.5969C7.46774 16.5247 7.5689 16.4547 7.66953 16.3883C7.76226 16.3271 7.85446 16.2692 7.94719 16.2128C8.06205 16.1427 8.17691 16.0748 8.29177 16.0115C8.36501 15.9715 8.43771 15.9346 8.51095 15.8972C8.64846 15.8277 8.78545 15.7602 8.92349 15.7007C8.96775 15.6812 9.01254 15.6638 9.05732 15.6459C9.22487 15.5774 9.39294 15.5126 9.56207 15.4589C9.56997 15.4562 9.57734 15.4541 9.58525 15.452C10.1769 15.2655 10.7755 15.168 11.3845 15.1591C11.4009 15.1591 11.4161 15.1548 11.4325 15.1538C11.58 15.1527 11.7275 15.1506 11.8761 15.1601V21.6138Z" fill="#111111"/>
<path d="M36.0702 21.6138V15.1596C36.2188 15.1501 36.3663 15.1523 36.5138 15.1533C36.5302 15.1544 36.5454 15.1586 36.5618 15.1586C37.1745 15.167 37.7762 15.2655 38.3721 15.4542C38.3742 15.4547 38.3758 15.4552 38.3779 15.4557C38.5523 15.5111 38.7262 15.578 38.8995 15.6491C38.9385 15.6654 38.9775 15.6802 39.016 15.697C39.1582 15.7587 39.3005 15.8282 39.4427 15.9004C39.5117 15.9357 39.5808 15.9705 39.6498 16.0084C39.7678 16.0727 39.8853 16.1428 40.0028 16.2144C40.0934 16.2698 40.184 16.3261 40.2747 16.3862C40.3763 16.4531 40.478 16.5242 40.5797 16.5969C40.6825 16.6707 40.7852 16.7466 40.8879 16.8256C40.9348 16.862 40.9822 16.901 41.0291 16.9384V23.0354C39.4733 22.0865 37.8984 21.6091 36.3226 21.6091C36.2388 21.6096 36.1545 21.6107 36.0702 21.6138Z" fill="#111111"/>
<path d="M47.6825 21.6137C46.0192 21.5579 44.3621 22.0363 42.723 23.0357V16.9387C42.7704 16.9008 42.8179 16.8618 42.8648 16.8255C42.9664 16.747 43.0681 16.6716 43.1698 16.5989C43.2736 16.5246 43.3769 16.4524 43.4807 16.3839C43.5687 16.3255 43.6572 16.2707 43.7457 16.2164C43.8658 16.1432 43.9865 16.0715 44.1071 16.0056C44.173 15.9698 44.2388 15.9366 44.3042 15.9029C44.4501 15.8286 44.5961 15.757 44.7425 15.6937C44.7757 15.6795 44.8094 15.6663 44.8426 15.6526C45.6135 15.3344 46.3922 15.1695 47.1899 15.1579C47.2083 15.1574 47.2252 15.1532 47.2431 15.1516C47.389 15.1511 47.535 15.1484 47.6814 15.1584V21.6137H47.6825Z" fill="#111111"/>
<path d="M18.167 46.2478V39.7947C18.315 39.7847 18.462 39.7873 18.609 39.7878C18.6259 39.7889 18.6417 39.7931 18.6586 39.7936C19.4568 39.8047 20.2366 39.9701 21.0079 40.2889C21.04 40.3026 21.0727 40.3147 21.1048 40.3289C21.2529 40.3927 21.4004 40.4648 21.5479 40.5402C21.6117 40.5729 21.6755 40.605 21.7392 40.6398C21.8614 40.7067 21.9842 40.7794 22.1064 40.8537C22.1928 40.9069 22.2793 40.9601 22.3657 41.0175C22.471 41.0871 22.5769 41.1608 22.6823 41.2362C22.7814 41.3073 22.8809 41.3806 22.98 41.457C23.0285 41.4944 23.0775 41.5349 23.1259 41.5734V47.6704C21.5701 46.721 19.9952 46.2436 18.4194 46.2436C18.3356 46.2436 18.2513 46.2452 18.167 46.2478Z" fill="#111111"/>
<path d="M29.7793 46.248C28.1175 46.1932 26.4589 46.6711 24.8198 47.6705V41.5735C24.8694 41.534 24.9189 41.4929 24.9689 41.455C25.0653 41.3807 25.1612 41.3101 25.2577 41.2406C25.3694 41.1605 25.4805 41.083 25.5922 41.0098C25.6681 40.9597 25.7445 40.9123 25.8209 40.8649C25.9573 40.7811 26.0938 40.7 26.2308 40.6257C26.2751 40.6015 26.3188 40.5793 26.363 40.5567C26.5337 40.4687 26.7045 40.3849 26.8762 40.3122C26.8794 40.3106 26.8825 40.3096 26.8862 40.308C27.675 39.975 28.4721 39.8048 29.2893 39.7932C29.3088 39.7927 29.3272 39.7885 29.3462 39.7869C29.4906 39.7869 29.6349 39.7843 29.7804 39.7948V46.248H29.7793Z" fill="#111111"/>
<path d="M6.49981 8C5.12139 8 4 6.68014 4 5.05775V3.94225C4 2.31986 5.12139 1 6.49981 1C7.87861 1 9 2.31986 9 3.94225V5.05775C9 6.68014 7.87861 8 6.49981 8ZM6.49981 1.8924C5.53954 1.8924 4.75821 2.81202 4.75821 3.94225V5.05775C4.75821 6.18798 5.53954 7.1076 6.49981 7.1076C7.46008 7.1076 8.24179 6.18798 8.24179 5.05775V3.94225C8.24179 2.81202 7.46008 1.8924 6.49981 1.8924Z" fill="#111111"/>
<path d="M41.4998 8C40.1214 8 39 6.68014 39 5.05775V3.94225C39 2.31986 40.1214 1 41.4998 1C42.8786 1 44 2.31986 44 3.94225V5.05775C44 6.68014 42.8786 8 41.4998 8ZM41.4998 1.8924C40.5395 1.8924 39.7582 2.81202 39.7582 3.94225V5.05775C39.7582 6.18798 40.5395 7.1076 41.4998 7.1076C42.4601 7.1076 43.2418 6.18798 43.2418 5.05775V3.94225C43.2418 2.81202 42.4601 1.8924 41.4998 1.8924Z" fill="#111111"/>
<path d="M23.4998 33C22.1214 33 21 31.6801 21 30.0578V28.9422C21 27.3199 22.1214 26 23.4998 26C24.8786 26 26 27.3199 26 28.9422V30.0578C26 31.6801 24.8786 33 23.4998 33ZM23.4998 26.8924C22.5395 26.8924 21.7582 27.812 21.7582 28.9422V30.0578C21.7582 31.188 22.5395 32.1076 23.4998 32.1076C24.4601 32.1076 25.2418 31.188 25.2418 30.0578V28.9422C25.2418 27.812 24.4601 26.8924 23.4998 26.8924Z" fill="#111111"/>
<path d="M9.63773 14H3.36227C2.61133 14 2 13.4177 2 12.7015V11.0592C2 9.31763 3.09172 7.76166 4.7809 7.09547L5.02327 7L5.22444 7.16035C5.93853 7.72901 7.06104 7.72901 7.77556 7.16035L7.97673 7L8.21953 7.09547C9.90871 7.76166 11 9.31763 11 11.0592V12.7015C11 13.4177 10.3891 14 9.63773 14ZM4.89103 7.95507C3.65363 8.53696 2.86714 9.73131 2.86714 11.0596V12.7019C2.86714 12.9619 3.08912 13.1739 3.36227 13.1739H9.63816C9.91131 13.1739 10.1333 12.9623 10.1333 12.7019V11.0596C10.1333 9.73131 9.34681 8.53696 8.1094 7.95507C7.16423 8.56795 5.83577 8.56837 4.89103 7.95507Z" fill="#111111"/>
<path d="M44.6377 14H38.3623C37.6113 14 37 13.4177 37 12.7015V11.0592C37 9.31763 38.0917 7.76166 39.7809 7.09547L40.0233 7L40.2244 7.16035C40.9385 7.72901 42.061 7.72901 42.7756 7.16035L42.9767 7L43.2195 7.09547C44.9087 7.76166 46 9.31763 46 11.0592V12.7015C46 13.4177 45.3891 14 44.6377 14ZM39.891 7.95507C38.6536 8.53696 37.8671 9.73131 37.8671 11.0596V12.7019C37.8671 12.9619 38.0891 13.1739 38.3623 13.1739H44.6382C44.9113 13.1739 45.1333 12.9623 45.1333 12.7019V11.0596C45.1333 9.73131 44.3468 8.53696 43.1094 7.95507C42.1642 8.56795 40.8358 8.56837 39.891 7.95507Z" fill="#111111"/>
<path d="M26.6377 39H20.3623C19.6113 39 19 38.4177 19 37.7015V36.0592C19 34.3176 20.0917 32.7617 21.7809 32.0955L22.0233 32L22.2244 32.1603C22.9385 32.729 24.061 32.729 24.7756 32.1603L24.9767 32L25.2195 32.0955C26.9087 32.7617 28 34.3176 28 36.0592V37.7015C28 38.4177 27.3891 39 26.6377 39ZM21.891 32.9551C20.6536 33.537 19.8671 34.7313 19.8671 36.0596V37.7019C19.8671 37.9619 20.0891 38.1739 20.3623 38.1739H26.6382C26.9113 38.1739 27.1333 37.9623 27.1333 37.7019V36.0596C27.1333 34.7313 26.3468 33.537 25.1094 32.9551C24.1642 33.568 22.8358 33.5684 21.891 32.9551Z" fill="#111111"/>
</g>
<defs>
<clipPath id="clip0_2797_2274">
<rect width="48" height="48" fill="white"/>
</clipPath>
</defs>
</svg>
