<svg width="708" height="1645" viewBox="0 0 708 1645" fill="none" xmlns="http://www.w3.org/2000/svg">
<path d="M-66.8572 94.8077C-7.90036 27.3161 65.6968 -1.74276 135.073 20.5201C168.179 31.0656 201.284 54.2659 224.498 98.7916C246.129 140.271 258.79 199.795 250.217 256.038C242.04 309.937 217.771 351.182 194.558 386.099C168.179 425.938 140.877 463.902 114.762 504.678C61.7399 587.637 12.2795 679.5 -22.6726 789.408C-57.097 897.676 -77.4088 1020.94 -74.7709 1145.85C-72.2649 1265.36 -48.7877 1381.13 -4.47111 1471.59C35.361 1552.91 90.3611 1611.96 149.845 1634.22C214.87 1658.6 284.246 1641.26 342.939 1585.95C373.934 1556.66 399.126 1514.24 426.956 1477.21C454.39 1440.66 485.253 1416.28 519.678 1411.6C583.515 1402.93 642.471 1459.64 675.577 1555.95C679.27 1566.73 682.699 1577.98 685.865 1589.46C689.03 1601.18 693.383 1613.13 695.229 1625.55C697.472 1639.85 709.87 1633.76 707.759 1619.46C705.649 1606.1 704.99 1592.28 702.22 1578.92C699.45 1565.8 696.021 1552.91 692.196 1540.49C684.678 1517.05 675.445 1495.49 664.894 1476.04C643.131 1436.2 615.697 1406.21 585.625 1390.51C553.179 1373.63 517.963 1373.4 485.253 1388.86C450.169 1405.5 421.944 1442.06 394.378 1482.37C367.867 1521.27 340.829 1556.42 308.778 1579.15C277.387 1601.42 243.886 1613.84 209.989 1614.77C146.021 1616.41 83.3707 1574.94 34.9654 1501.12C-15.9459 1423.55 -47.8644 1316.45 -57.3608 1198.81C-67.5167 1072.26 -51.5575 942.905 -19.1114 829.716C13.8622 714.652 62.927 619.039 116.608 533.269C143.251 490.618 171.212 451.013 198.646 410.237C222.387 375.085 245.997 335.949 258.131 284.393C270.397 231.9 266.44 172.376 249.69 124.101C232.807 75.1226 205.637 42.0799 175.565 22.8635C111.86 -16.7409 37.4714 -2.21144 -23.2001 45.8294C-38.8956 58.2498 -53.9316 73.4822 -68.1762 90.8238C-69.4951 92.4642 -68.3081 96.2138 -66.8572 94.8077Z" fill="#FEF3EF"/>
</svg>
