<svg width="570" height="702" viewBox="0 0 570 702" fill="none" xmlns="http://www.w3.org/2000/svg">
<path d="M587.483 40.4563C542.783 11.6563 486.983 -0.743669 434.383 8.75633C409.283 13.2563 384.183 23.1563 366.583 42.1563C350.183 59.8563 340.583 85.2563 347.083 109.256C353.283 132.256 371.683 149.856 389.283 164.756C409.283 181.756 429.983 197.956 449.783 215.356C489.983 250.756 527.483 289.956 553.983 336.856C580.083 383.056 595.483 435.656 593.483 488.956C591.583 539.956 573.783 589.356 540.183 627.956C509.983 662.656 468.283 687.856 423.183 697.356C373.883 707.756 321.283 700.356 276.783 676.756C253.283 664.256 234.183 646.156 213.083 630.356C192.283 614.756 168.883 604.356 142.783 602.356C94.3826 598.656 49.6826 622.856 24.5826 663.956C21.7826 668.556 19.1826 673.356 16.7825 678.256C14.3825 683.256 11.0826 688.356 9.68256 693.656C7.98254 699.756 -1.41742 697.156 0.182556 691.056C1.78253 685.356 2.28259 679.456 4.38257 673.756C6.48254 668.156 9.08252 662.656 11.9825 657.356C17.6826 647.356 24.6826 638.156 32.6826 629.856C49.1826 612.856 69.9825 600.056 92.7825 593.356C117.383 586.156 144.083 586.056 168.883 592.656C195.483 599.756 216.883 615.356 237.783 632.556C257.883 649.156 278.383 664.156 302.683 673.856C326.483 683.356 351.883 688.656 377.583 689.056C426.083 689.756 473.583 672.056 510.283 640.556C548.883 607.456 573.083 561.756 580.283 511.556C587.983 457.556 575.883 402.356 551.283 354.056C526.283 304.956 489.083 264.156 448.383 227.556C428.183 209.356 406.983 192.456 386.183 175.056C368.183 160.056 350.283 143.356 341.083 121.356C331.783 98.9563 334.783 73.5563 347.483 52.9563C360.283 32.0563 380.883 17.9563 403.683 9.75633C451.983 -7.14367 508.383 -0.943666 554.383 19.5563C566.283 24.8563 577.683 31.3563 588.483 38.7563C589.483 39.4563 588.583 41.0563 587.483 40.4563Z" fill="#FEF3EF"/>
</svg>
