<svg width="491" height="816" viewBox="0 0 491 816" fill="none" xmlns="http://www.w3.org/2000/svg">
<path d="M-5.38215 13.6799C51.7561 5.57176 112.795 1.21362 171.103 9.22044C214.785 15.2002 256.518 27.8692 281.869 47.7343C303.321 64.4574 312.291 85.0319 306.441 104.897C299.81 128.005 274.654 147.059 243.842 163.478C177.928 198.546 91.7334 220.641 22.1144 253.479C-51.5998 288.243 -110.688 342.669 -77.5363 395.575C-47.8946 442.906 45.9058 469.765 124.495 492.265C190.409 511.015 258.078 528.65 320.677 550.441C378.985 570.813 441.778 597.469 460.305 634.462C483.121 680.476 422.082 723.956 352.268 748.686C263.733 780.004 153.747 794.903 48.2459 799.666C-6.16219 802.099 -61.1553 802.301 -115.563 800.578C-170.362 798.855 -224.77 796.626 -278.983 791.558C-304.334 789.126 -329.491 786.288 -354.647 783.247C-368.103 781.625 -373.758 792.572 -360.302 793.99C-305.699 799.565 -250.511 804.531 -195.518 808.889C-140.135 813.247 -84.7517 815.68 -28.5885 815.781C83.1529 815.984 196.454 805.443 298.25 780.815C388.735 758.923 476.1 721.422 489.556 666.793C499.697 626.253 455.039 591.286 398.876 565.543C339.983 538.38 269.779 518.921 200.94 499.562C164.083 489.224 126.835 478.886 90.7584 467.839C49.611 455.271 9.04869 441.082 -21.7631 421.927C-55.5 400.947 -68.5658 374.392 -59.5952 347.534C-50.4297 320.169 -23.1282 295.844 12.9489 275.675C78.8627 238.783 167.983 216.384 239.357 182.837C273.874 166.62 305.271 147.262 320.482 124.052C333.547 103.985 333.352 81.89 317.946 62.2276C302.15 42.0585 272.704 25.6395 236.237 15.2002C187.874 1.51768 130.151 -1.21883 76.3276 2.22714C48.2459 4.05148 20.7494 7.59881 -5.96716 12.4637C-7.72226 12.6664 -6.94224 13.984 -5.38215 13.6799Z" fill="#FEF3EF"/>
</svg>
