<svg width="245" height="842" viewBox="0 0 245 842" fill="none" xmlns="http://www.w3.org/2000/svg">
<path d="M0.0539478 668.392C19.6052 758.961 75.0003 829.061 133.766 840.835C197.701 853.514 256.355 760.772 248.939 657.524C240.961 545.219 176.577 482.364 143.317 391.252C127.362 347.417 119.945 297.785 129.047 247.973C138.148 198.16 160.172 156.317 186.352 126.973C216.353 93.4627 251.523 76.2547 287.367 67.1978C321.75 58.5032 359.616 62.3071 391.415 36.5857C398.382 30.9704 404.786 20.6456 410.517 12.1321C414.899 5.43007 408.607 -3.98906 404.112 1.80733C397.483 10.1396 389.842 14.4869 382.201 19.5588C374.673 24.6306 366.92 28.2533 359.055 30.9704C341.863 36.9479 323.997 37.8536 306.581 41.1141C270.4 47.8162 234.444 59.5901 201.858 86.5795C146.913 131.864 100.394 225.874 113.653 330.39C119.721 378.029 137.025 419.691 155.677 457.005C176.015 497.399 200.398 532.72 217.027 577.642C234.331 624.376 243.208 680.528 229.612 732.515C218.151 776.169 193.656 810.766 165.34 823.264C135.789 836.487 103.878 822.721 77.3598 800.441C50.1679 777.437 26.9088 742.296 11.2903 699.548C7.58229 689.223 4.21139 678.536 1.17758 667.668C1.06522 666.037 -0.283142 666.943 0.0539478 668.392Z" fill="#FEF3EF"/>
</svg>
