<svg width="288" height="519" viewBox="0 0 288 519" fill="none" xmlns="http://www.w3.org/2000/svg">
<path d="M41.5264 379.123C28.374 390.681 18.0952 403.977 10.6901 419.318C3.28499 434.558 -2.02017 450.206 0.742938 466.98C6.26915 500.732 41.858 521.596 77.4468 518.63C114.472 515.46 145.53 492.345 166.971 465.548C187.087 440.388 198.913 409.5 199.797 378.203C200.902 343.428 187.197 312.131 166.087 283.903C154.814 268.765 141.993 254.446 131.935 238.593C123.093 224.684 116.793 209.444 113.367 193.489C106.846 162.396 112.815 129.565 129.062 101.848C145.198 74.335 170.729 52.4475 200.018 37.1058C255.501 7.95658 328.337 1.10396 384.483 32.5033C391.667 36.4921 398.409 40.8901 404.82 45.9017C411.009 50.8111 420.182 42.5265 413.882 37.5149C364.478 -2.57804 293.964 -8.61245 233.175 10.309C170.508 29.8441 115.135 75.6646 101.32 137.338C94.4675 168.022 98.3359 199.83 111.93 228.468C127.514 261.299 157.024 286.459 173.824 318.779C203.776 376.362 181.671 446.32 129.835 486.311C101.983 507.789 58.2155 518.733 27.7109 495.209C12.9006 483.856 7.1534 467.082 7.1534 449.593C7.26392 432.001 15.2217 415.637 24.7268 400.704C29.5898 393.135 35.5581 386.18 41.9685 379.635C42.3001 379.226 41.858 378.816 41.5264 379.123Z" fill="#F9E6DE"/>
</svg>
