<svg width="45" height="32" viewBox="0 0 45 32" fill="none" xmlns="http://www.w3.org/2000/svg">
<path d="M0.567802 24.8346C0.567802 26.0288 0.839222 27.0874 1.38205 28.0102C1.8706 28.8787 2.522 29.6115 3.33625 30.2087C4.1505 30.8058 5.04617 31.2672 6.02327 31.5929C6.94609 31.8643 7.81462 32 8.62887 32C9.87739 32 11.153 31.7286 12.4558 31.1858C13.7044 30.5886 14.8443 29.7472 15.8757 28.6616C16.9071 27.5759 17.7485 26.2731 18.3999 24.7532C19.0513 23.2332 19.377 21.5505 19.377 19.7048C19.377 16.5021 18.7798 13.7608 17.5856 11.4809C16.3371 9.20102 14.8714 7.3011 13.1887 5.78117C11.4516 4.20696 9.68739 2.98558 7.89605 2.11705C6.05042 1.19423 4.53048 0.542833 3.33625 0.16285V2.76845C4.42192 3.41985 5.58901 4.12553 6.83752 4.8855C8.03176 5.64546 9.14456 6.54114 10.1759 7.57252C11.153 8.6039 11.9673 9.77099 12.6187 11.0738C13.2701 12.3766 13.5958 13.8422 13.5958 15.4707C13.5958 16.285 13.5144 16.9364 13.3515 17.4249C13.1887 17.9135 12.9987 18.2935 12.7815 18.5649C12.5101 18.8363 12.2659 19.0263 12.0487 19.1349C11.7773 19.2434 11.5602 19.2977 11.3973 19.2977C10.8002 19.2977 10.0674 19.1349 9.19884 18.8092C8.33031 18.4292 7.51607 18.2392 6.7561 18.2392C6.05042 18.2392 5.34473 18.402 4.63905 18.7277C3.87908 18.9992 3.20054 19.4334 2.60343 20.0305C2.00631 20.5734 1.51776 21.2519 1.13778 22.0662C0.757793 22.8804 0.567802 23.8032 0.567802 24.8346ZM25.9622 24.6718C25.9622 25.866 26.2336 26.9245 26.7765 27.8473C27.265 28.7701 27.9164 29.5301 28.7307 30.1272C29.5449 30.6701 30.4406 31.1043 31.4177 31.43C32.3405 31.7014 33.2362 31.8372 34.1047 31.8372C35.3532 31.8372 36.6017 31.5657 37.8502 31.0229C39.0988 30.4258 40.2387 29.6115 41.2701 28.5802C42.3015 27.4945 43.1429 26.1917 43.7943 24.6718C44.3914 23.1518 44.6899 21.469 44.6899 19.6234C44.6899 16.4207 44.0928 13.6794 42.8986 11.3995C41.6501 9.06531 40.1844 7.13825 38.5016 5.61832C36.7646 4.04411 35.0004 2.82273 33.209 1.9542C31.4177 1.03138 29.9249 0.379983 28.7307 0V2.68702C29.8163 3.33842 30.9834 4.04411 32.2319 4.80407C33.4262 5.56404 34.539 6.45971 35.5703 7.49109C36.5474 8.52248 37.3888 9.68957 38.0945 10.9924C38.7459 12.2409 39.0716 13.7065 39.0716 15.3893C39.0716 16.9092 38.7731 17.9135 38.1759 18.402C37.5245 18.8906 37.036 19.1349 36.7103 19.1349C36.1675 19.1349 35.4618 18.972 34.5932 18.6463C33.7247 18.3206 32.9105 18.1578 32.1505 18.1578C31.4448 18.1578 30.7391 18.3206 30.0335 18.6463C29.2735 18.9177 28.5949 19.352 27.9978 19.9491C27.4007 20.4919 26.9122 21.1705 26.5322 21.9847C26.1522 22.7447 25.9622 23.6404 25.9622 24.6718Z" fill="#D75523"/>
</svg>
