<svg width="30" height="38" viewBox="0 0 30 38" fill="none" xmlns="http://www.w3.org/2000/svg">
<path d="M25.0568 20.1763C25.075 18.7581 25.4504 17.3676 26.1481 16.1341C26.8458 14.9006 27.8431 13.8642 29.0472 13.1214C28.2823 12.0252 27.2731 11.1231 26.0999 10.4867C24.9267 9.85028 23.6218 9.49713 22.2888 9.45528C19.4453 9.15578 16.6887 11.1626 15.2396 11.1626C13.7626 11.1626 11.5316 9.48501 9.12924 9.5346C7.57531 9.58498 6.06089 10.0384 4.73352 10.8507C3.40616 11.663 2.31112 12.8064 1.5551 14.1696C-1.71972 19.8589 0.723008 28.2204 3.86007 32.8193C5.42962 35.0712 7.26396 37.5867 9.66419 37.4975C12.0129 37.3997 12.8902 35.9946 15.7253 35.9946C18.5341 35.9946 19.3571 37.4975 21.8061 37.4407C24.3264 37.3997 25.9143 35.1788 27.4288 32.9056C28.5565 31.301 29.4243 29.5276 30 27.651C28.5358 27.0296 27.2862 25.9894 26.4072 24.6602C25.5281 23.331 25.0585 21.7715 25.0568 20.1763Z" fill="white"/>
<path d="M20.4312 6.43099C21.8054 4.7757 22.4824 2.64809 22.3185 0.5C20.219 0.721259 18.2797 1.72809 16.887 3.31987C16.206 4.0975 15.6845 5.00217 15.3522 5.98218C15.0199 6.96218 14.8833 7.99829 14.9503 9.03128C16.0004 9.04212 17.0392 8.81374 17.9886 8.36333C18.938 7.91291 19.7732 7.25222 20.4312 6.43099Z" fill="white"/>
</svg>
