<svg width="33" height="38" viewBox="0 0 33 38" fill="none" xmlns="http://www.w3.org/2000/svg">
<path d="M15.4406 18.1701L0.636475 34.4258C0.637865 34.4287 0.637865 34.433 0.639255 34.4359C1.09393 36.201 2.65124 37.5 4.50054 37.5C5.24026 37.5 5.9341 37.2928 6.52921 36.9303L6.57649 36.9016L23.2397 26.9539L15.4406 18.1701Z" fill="#EA4335"/>
<path d="M30.417 15.402L30.4031 15.3919L23.2089 11.0776L15.104 18.5395L23.2381 26.9521L30.3934 22.6811C31.6476 21.979 32.4999 20.611 32.4999 19.0343C32.4999 17.4663 31.6601 16.1054 30.417 15.402Z" fill="#FBBC04"/>
<path d="M0.636264 3.57301C0.547275 3.91251 0.5 4.26927 0.5 4.63754V33.3627C0.5 33.731 0.547275 34.0877 0.637655 34.4258L15.9493 18.5858L0.636264 3.57301Z" fill="#4285F4"/>
<path d="M15.55 19L23.2114 11.075L6.56765 1.09138C5.96281 0.715918 5.25646 0.500135 4.50144 0.500135C2.65214 0.500135 1.09205 1.80203 0.637376 3.56858C0.637376 3.57002 0.635986 3.57146 0.635986 3.5729L15.55 19Z" fill="#34A853"/>
</svg>
